Coordinates
version=1
nRows=5
nColumns=40
inDegrees=yes

Units are S.I. units (second, meters, Newtons, ...)
Angles are in degrees.

endheader
time	pelvis_tilt	pelvis_list	pelvis_rotation	pelvis_tx	pelvis_ty	pelvis_tz	hip_flexion_r	hip_adduction_r	hip_rotation_r	knee_angle_r	knee_angle_r_beta	ankle_angle_r	subtalar_angle_r	mtp_angle_r	hip_flexion_l	hip_adduction_l	hip_rotation_l	knee_angle_l	knee_angle_l_beta	ankle_angle_l	subtalar_angle_l	mtp_angle_l	lumbar_extension	lumbar_bending	lumbar_rotation	arm_flex_r	arm_add_r	arm_rot_r	elbow_flex_r	pro_sup_r	wrist_flex_r	wrist_dev_r	arm_flex_l	arm_add_l	arm_rot_l	elbow_flex_l	pro_sup_l	wrist_flex_l	wrist_dev_l
     19.39250000	     -5.94494581	     -5.07523883	      2.86882681	      0.80449564	      0.92076397	      0.49465713	      0.91885697	      0.12101869	    -16.28717296	     19.78855046	     19.78855046	     16.84332231	      1.48513455	     -5.09652614	     28.16168144	     -5.87547208	      0.13618959	     25.79595282	     25.79595282	      6.52810056	    -14.58085367	      4.78449333	     -8.10954186	      5.64969623	      4.60885981	     37.04491681	    -16.63363276	     -3.62216283	     83.01455735	     44.87374855	      0.00000000	      0.00000000	     -5.73587758	     -7.57415288	      1.82681400	     28.89129054	     44.74141218	      0.00000000	      0.00000000
     19.40571429	     -6.00339667	     -5.02079531	      2.50045400	      0.80496785	      0.92146690	      0.49185790	      1.74475653	     -0.53966201	    -15.81668033	     22.05692160	     22.05692160	     16.35475667	      0.85447486	     -5.97327797	     27.68340769	     -5.78821004	     -0.16122783	     25.92065184	     25.92065184	      7.24419483	    -14.53881665	      5.10309730	     -8.01766351	      5.64494519	      4.82486418	     35.66380641	    -16.55459761	     -3.49675147	     80.61777561	     44.94776164	      0.00000000	      0.00000000	     -4.63596326	     -7.64836467	      1.68609911	     29.52602087	     44.79326957	      0.00000000	      0.00000000
     19.41892857	     -6.03756929	     -4.96125836	      2.13099646	      0.80535769	      0.92211478	      0.48912236	      2.72225231	     -1.21307106	    -15.27013712	     24.58962861	     24.58962861	     15.63322463	     -0.05538042	     -7.15885500	     27.15977048	     -5.71970239	     -0.58459549	     26.00012110	     26.00012110	      7.92654574	    -14.41969058	      5.30074020	     -7.99199626	      5.63734376	      4.90151050	     34.31983811	    -16.38015012	     -3.33831542	     78.03940021	     45.02653368	      0.00000000	      0.00000000	     -3.61019294	     -7.78580490	      1.49667155	     30.29778568	     44.85049640	      0.00000000	      0.00000000
     19.43214286	     -6.00954159	     -4.92180324	      1.77575550	      0.80566304	      0.92274242	      0.48647443	      3.81635769	     -1.86305677	    -14.65995458	     27.39866549	     27.39866549	     14.64425370	     -1.26776157	     -8.55285524	     26.57076488	     -5.68685707	     -1.07076512	     26.06178062	     26.06178062	      8.52520814	    -14.26000683	      5.34975703	     -8.01684255	      5.63857861	      4.87746352	     32.96502683	    -16.11081122	     -3.12882192	     75.42172958	     45.10419955	      0.00000000	      0.00000000	     -2.58723068	     -7.97045137	      1.27099943	     31.21912031	     44.91130654	      0.00000000	      0.00000000
     19.44535714	     -5.96633144	     -4.90761613	      1.43059432	      0.80578956	      0.92320828	      0.48398875	      4.95856474	     -2.38881951	    -13.82468539	     30.05126259	     30.05126259	     11.99852934	     -3.72319705	    -13.80163129	     26.01726835	     -5.68294042	     -1.50295259	     26.21084338	     26.21084338	      9.36917718	    -13.95317950	      5.63976423	     -8.06166917	      5.65129945	      3.78861451	     32.99159326	    -14.82013163	     -2.19926681	     69.99534984	     45.26549917	      0.00000000	      0.00000000	     -2.53255298	     -8.33848440	      0.09966858	     33.50120054	     45.15073768	      0.00000000	      0.00000000
